<svg width="270" height="270" viewBox="0 0 270 270" fill="none" xmlns="http://www.w3.org/2000/svg">
<mask id="mask0_3162_29990" style="mask-type:alpha" maskUnits="userSpaceOnUse" x="0" y="0" width="270" height="270">
<rect width="270" height="270" fill="#C4C4C4"/>
</mask>
<g mask="url(#mask0_3162_29990)">
<path d="M231.726 85.4601L232.408 18L236.096 85.598" fill="#A9D2FF"/>
<path d="M220.659 85.4424L247.128 115.512V118.771L220.692 88.3281L220.659 85.4424Z" fill="#A9D2FF"/>
<path d="M247.128 85.4424L220.659 115.512V118.771L247.095 88.3281L247.128 85.4424Z" fill="#A9D2FF"/>
<path d="M247.262 118.771H220.659V121.123H247.262V118.771Z" fill="#A9D2FF"/>
<path d="M220.659 121.115L247.127 151.18V154.44L220.691 124L220.659 121.115Z" fill="#A9D2FF"/>
<path d="M247.127 121.115L220.659 151.18V154.44L247.094 124L247.127 121.115Z" fill="#A9D2FF"/>
<path d="M247.261 154.441H220.658V156.793H247.261V154.441Z" fill="#A9D2FF"/>
<path d="M220.659 156.786L247.127 186.855V190.115L220.691 159.671L220.659 156.786Z" fill="#A9D2FF"/>
<path d="M247.127 156.786L220.659 186.855V190.115L247.094 159.671L247.127 156.786Z" fill="#A9D2FF"/>
<path d="M247.261 190.115H220.658V192.467H247.261V190.115Z" fill="#A9D2FF"/>
<path d="M220.659 192.459L247.127 222.525V225.784L220.691 195.345L220.659 192.459Z" fill="#A9D2FF"/>
<path d="M247.127 192.459L220.659 222.525V225.784L247.095 195.345L247.127 192.459Z" fill="#A9D2FF"/>
<path d="M247.261 225.785H220.658V228.137H247.261V225.785Z" fill="#A9D2FF"/>
<path d="M220.659 228.133L247.127 258.199V261.459L220.691 231.019L220.659 228.133Z" fill="#A9D2FF"/>
<path d="M247.127 228.133L220.659 258.199V261.459L247.095 231.019L247.127 228.133Z" fill="#A9D2FF"/>
<path d="M247.261 261.459H220.658V263.811H247.261V261.459Z" fill="#A9D2FF"/>
<path d="M247.261 265.546H220.658V267.898H247.261V265.546Z" fill="#A9D2FF"/>
<path d="M116.566 158.702L152.24 88.52L152.716 87.5835L241.563 268.272L241.933 269.027H170.814L170.513 268.414L116.566 158.702Z" fill="#E2F3FF"/>
<path d="M98.1658 122.829L98.5506 122.07L116.565 158.702L60.4884 269.027H23.8563L98.1658 122.829Z" fill="white"/>
<path d="M60.9351 269.753H22.6733L98.5618 120.448L117.393 158.71L60.9351 269.753ZM25.0399 268.301H60.0422L115.753 158.699L98.54 123.693L25.0399 268.301Z" fill="#A9D2FF"/>
<path d="M170.512 268.413L170.814 269.027H60.4891L116.566 158.702L170.512 268.413Z" fill="#A9D2FF"/>
<path d="M189.755 221.963H181.773V253.996H189.755V221.963Z" fill="#F7CE6B"/>
<path d="M205.213 221.963H197.231V253.996H205.213V221.963Z" fill="#F7CE6B"/>
<path d="M191.043 198.445H181.195V223.541H191.043V198.445Z" fill="#1E2A7D"/>
<path d="M206.764 198.445H196.917V223.541H206.764V198.445Z" fill="#1E2A7D"/>
<path d="M206.089 174.913C206.089 174.913 207.138 183.868 213.901 189.868C219.785 195.088 230.714 205.284 233.458 207.846C233.659 208.035 233.818 208.263 233.924 208.517C234.031 208.771 234.082 209.045 234.075 209.32L234.039 210.725C234.028 211.181 233.857 211.619 233.557 211.962C233.256 212.306 232.845 212.533 232.395 212.605L206.946 216.638L206.089 174.913Z" fill="#50DDB6"/>
<path d="M205.489 223.534H196.719V224.318H205.489V223.534Z" fill="#5762FC"/>
<g style="mix-blend-mode:multiply">
<path d="M203.675 150.604H203.421V126.012C203.498 125.951 203.561 125.875 203.607 125.788C203.652 125.701 203.679 125.606 203.686 125.508H203.421V106.684C203.421 99.3669 201.823 92.1383 198.738 85.5037L193 67.87L193.726 64.2402L182.005 85.7287C179.079 92.2198 177.566 99.2586 177.566 106.379V182.322C176.586 185.469 174.589 189.988 170.633 193.498C164.749 198.721 153.816 208.917 151.072 211.48C150.873 211.665 150.715 211.89 150.61 212.14C150.504 212.391 150.452 212.66 150.458 212.932L150.491 214.34C150.503 214.797 150.674 215.235 150.975 215.578C151.276 215.921 151.688 216.149 152.139 216.22L177.547 220.25V223.829V227.157H187.413V223.829H203.421V177.469C203.498 177.408 203.561 177.331 203.607 177.244C203.652 177.157 203.679 177.062 203.686 176.964H203.421V151.105C203.496 151.044 203.557 150.968 203.6 150.882C203.644 150.795 203.67 150.701 203.675 150.604Z" fill="#1E2A7D"/>
</g>
<path d="M182.073 174.913C182.073 174.913 181.024 183.868 174.262 189.868C168.378 195.088 157.449 205.284 154.705 207.846C154.504 208.035 154.345 208.263 154.239 208.517C154.132 208.771 154.081 209.045 154.088 209.32L154.12 210.725C154.132 211.181 154.304 211.619 154.605 211.963C154.906 212.306 155.317 212.533 155.768 212.605L181.217 216.638L182.073 174.913Z" fill="#1E2A7D"/>
<path d="M207.051 103.052C207.052 95.7357 205.454 88.5072 202.369 81.8725L194.129 64.1445V220.226H207.051V103.052Z" fill="#50DDB6"/>
<path d="M193.918 63.7021L185.635 82.098C182.709 88.5891 181.195 95.6279 181.195 102.748V220.212H194.118V64.1305L193.918 63.7021Z" fill="#1E2A7D"/>
<path d="M194.26 149.822C188.87 149.822 180.851 149.063 180.851 146.972H181.577C181.577 147.698 185.933 149.096 194.26 149.096C202.587 149.096 206.943 147.713 206.943 146.972H207.668C207.668 149.063 199.65 149.822 194.26 149.822Z" fill="white"/>
<path d="M194.26 141.778C188.87 141.778 180.851 141.019 180.851 138.928H181.577C181.577 139.654 185.933 141.052 194.26 141.052C197.394 141.086 200.524 140.831 203.61 140.289L203.752 141.015C200.618 141.563 197.441 141.818 194.26 141.778Z" fill="white"/>
<path d="M194.259 124.725C188.869 124.725 180.851 123.967 180.851 121.876H181.577C181.577 122.62 185.932 123.999 194.259 123.999C202.586 123.999 206.942 122.62 206.942 121.876H207.668C207.668 123.956 199.65 124.725 194.259 124.725Z" fill="white"/>
<path d="M194.26 176.181C188.87 176.181 180.851 175.423 180.851 173.332H181.577C181.577 174.058 185.933 175.455 194.26 175.455C202.587 175.455 206.943 174.073 206.943 173.332H207.668C207.668 175.423 199.65 176.181 194.26 176.181Z" fill="white"/>
<path d="M204.145 123.821H203.419V148.715H204.145V123.821Z" fill="white"/>
<path d="M203.832 132.275C204.762 132.275 205.517 131.521 205.517 130.591C205.517 129.661 204.762 128.907 203.832 128.907C202.902 128.907 202.148 129.661 202.148 130.591C202.148 131.521 202.902 132.275 203.832 132.275Z" fill="#00CCBF"/>
<path d="M203.831 132.638C203.426 132.638 203.03 132.518 202.694 132.293C202.357 132.068 202.095 131.748 201.94 131.374C201.785 131 201.744 130.588 201.823 130.191C201.902 129.794 202.097 129.429 202.384 129.143C202.67 128.857 203.035 128.662 203.432 128.583C203.829 128.504 204.24 128.544 204.615 128.699C204.989 128.854 205.308 129.117 205.533 129.453C205.758 129.79 205.878 130.186 205.878 130.591C205.877 131.133 205.661 131.653 205.278 132.037C204.894 132.421 204.374 132.637 203.831 132.638ZM203.831 129.269C203.57 129.269 203.314 129.347 203.097 129.492C202.88 129.637 202.71 129.844 202.61 130.085C202.51 130.326 202.484 130.592 202.535 130.848C202.586 131.105 202.712 131.34 202.897 131.525C203.082 131.71 203.317 131.836 203.573 131.887C203.83 131.938 204.095 131.911 204.337 131.811C204.578 131.711 204.785 131.542 204.93 131.325C205.075 131.107 205.152 130.852 205.152 130.591C205.151 130.241 205.012 129.905 204.764 129.657C204.517 129.41 204.181 129.27 203.831 129.269Z" fill="white"/>
<path d="M203.812 170.727H196.705L195.696 73.0854L200.015 82.8859C202.52 88.5705 203.813 94.7143 203.812 100.926V170.727Z" fill="url(#paint0_linear_3162_29990)"/>
<path d="M194.022 110.131C197.505 110.131 200.327 107.309 200.327 103.826C200.327 100.344 197.505 97.5215 194.022 97.5215C190.54 97.5215 187.717 100.344 187.717 103.826C187.717 107.309 190.54 110.131 194.022 110.131Z" fill="white"/>
<path d="M144.088 269.583C151.407 269.583 157.34 263.649 157.34 256.33C157.34 249.011 151.407 243.078 144.088 243.078C136.769 243.078 130.836 249.011 130.836 256.33C130.836 263.649 136.769 269.583 144.088 269.583Z" fill="white"/>
<path d="M130.5 256.66C130.497 259.997 131.754 263.212 134.019 265.662C136.284 268.113 139.391 269.618 142.718 269.876C144.207 261.228 142.27 252.34 137.317 245.096C135.253 246.241 133.532 247.917 132.334 249.95C131.135 251.983 130.502 254.3 130.5 256.66Z" fill="#A9D2FF"/>
<path d="M108.782 302.044C127.502 302.044 142.678 286.868 142.678 268.149C142.678 249.429 127.502 234.253 108.782 234.253C90.0627 234.253 74.8873 249.429 74.8873 268.149C74.8873 286.868 90.0627 302.044 108.782 302.044Z" fill="white"/>
<path d="M64.7619 283.608C72.7967 283.608 79.3102 277.094 79.3102 269.06C79.3102 261.025 72.7967 254.511 64.7619 254.511C56.7271 254.511 50.2136 261.025 50.2136 269.06C50.2136 277.094 56.7271 283.608 64.7619 283.608Z" fill="#A9D2FF"/>
<path d="M68.747 283.608C76.7818 283.608 83.2953 277.094 83.2953 269.06C83.2953 261.025 76.7818 254.511 68.747 254.511C60.7122 254.511 54.1987 261.025 54.1987 269.06C54.1987 277.094 60.7122 283.608 68.747 283.608Z" fill="white"/>
<path d="M20.0165 285.918C28.3099 285.918 35.0331 279.195 35.0331 270.901C35.0331 262.608 28.3099 255.885 20.0165 255.885C11.7231 255.885 5 262.608 5 270.901C5 279.195 11.7231 285.918 20.0165 285.918Z" fill="#A9D2FF"/>
<path d="M37.5635 291.223C45.8569 291.223 52.5801 284.5 52.5801 276.207C52.5801 267.914 45.8569 261.19 37.5635 261.19C29.2701 261.19 22.547 267.914 22.547 276.207C22.547 284.5 29.2701 291.223 37.5635 291.223Z" fill="#A9D2FF"/>
<path d="M178.69 289.688C197.409 289.688 212.585 274.512 212.585 255.793C212.585 237.073 197.409 221.897 178.69 221.897C159.97 221.897 144.794 237.073 144.794 255.793C144.794 274.512 159.97 289.688 178.69 289.688Z" fill="white"/>
<path d="M212.585 255.793C212.591 250.443 211.323 245.169 208.887 240.406C199.812 246.94 194.244 257.677 195.373 268.559L210.037 268.693C211.723 264.601 212.588 260.218 212.585 255.793Z" fill="#A9D2FF"/>
<path d="M262.722 269.15C262.231 264.572 260.81 260.141 258.548 256.131C256.285 252.12 253.228 248.613 249.564 245.825C250.252 245.055 250.753 244.136 251.028 243.14C251.302 242.144 251.343 241.098 251.146 240.084C250.949 239.07 250.521 238.115 249.894 237.294C249.267 236.473 248.459 235.807 247.533 235.35C246.606 234.893 245.587 234.657 244.554 234.659C243.521 234.661 242.502 234.902 241.578 235.363C240.653 235.824 239.848 236.492 239.225 237.316C238.601 238.14 238.177 239.097 237.984 240.112C233.253 238.815 228.296 238.56 223.456 239.367C218.616 240.173 214.009 242.021 209.954 244.782C205.898 247.543 202.491 251.152 199.966 255.36C197.442 259.567 195.862 264.272 195.334 269.15H262.722Z" fill="white"/>
<path d="M151.504 114.277C152.594 114.277 153.479 113.393 153.479 112.302C153.479 111.212 152.594 110.328 151.504 110.328C150.413 110.328 149.529 111.212 149.529 112.302C149.529 113.393 150.413 114.277 151.504 114.277Z" fill="white"/>
<path d="M130.12 151.37C130.635 151.37 131.052 150.952 131.052 150.437C131.052 149.922 130.635 149.504 130.12 149.504C129.604 149.504 129.187 149.922 129.187 150.437C129.187 150.952 129.604 151.37 130.12 151.37Z" fill="#A9D2FF"/>
<path d="M113.259 217.875C113.774 217.875 114.192 217.458 114.192 216.943C114.192 216.427 113.774 216.01 113.259 216.01C112.744 216.01 112.326 216.427 112.326 216.943C112.326 217.458 112.744 217.875 113.259 217.875Z" fill="white"/>
<path d="M102.631 213.24C102.87 213.24 103.063 213.047 103.063 212.808C103.063 212.57 102.87 212.376 102.631 212.376C102.392 212.376 102.199 212.57 102.199 212.808C102.199 213.047 102.392 213.24 102.631 213.24Z" fill="white"/>
<path d="M170.034 172.172C170.549 172.172 170.966 171.755 170.966 171.24C170.966 170.724 170.549 170.307 170.034 170.307C169.518 170.307 169.101 170.724 169.101 171.24C169.101 171.755 169.518 172.172 170.034 172.172Z" fill="white"/>
<path d="M173.289 161.406L173.728 163.802L176.127 164.245L173.728 164.684L173.289 167.08L172.849 164.684L170.454 164.245L172.849 163.802L173.289 161.406Z" fill="#A9D2FF"/>
<path d="M106.653 202.216L107.093 204.616L109.492 205.055L107.093 205.494L106.653 207.893L106.214 205.494L103.815 205.055L106.214 204.616L106.653 202.216Z" fill="white"/>
<path d="M266.351 269.06H54.1994V272.911H266.351V269.06Z" fill="white"/>
<path d="M203.83 142.749C204.761 142.749 205.515 141.995 205.515 141.065C205.515 140.135 204.761 139.381 203.83 139.381C202.9 139.381 202.146 140.135 202.146 141.065C202.146 141.995 202.9 142.749 203.83 142.749Z" fill="#00CCBF"/>
<path d="M203.831 143.112C203.426 143.112 203.03 142.992 202.693 142.767C202.357 142.543 202.094 142.223 201.939 141.849C201.784 141.475 201.744 141.063 201.823 140.666C201.902 140.269 202.097 139.904 202.383 139.618C202.669 139.331 203.034 139.136 203.431 139.057C203.828 138.978 204.24 139.019 204.614 139.174C204.988 139.329 205.308 139.591 205.533 139.928C205.758 140.265 205.878 140.66 205.878 141.065C205.877 141.608 205.661 142.128 205.277 142.512C204.893 142.896 204.373 143.112 203.831 143.112ZM203.831 139.744C203.569 139.744 203.314 139.822 203.097 139.967C202.879 140.112 202.71 140.318 202.61 140.56C202.51 140.801 202.484 141.067 202.535 141.323C202.586 141.579 202.712 141.815 202.896 142C203.081 142.184 203.317 142.31 203.573 142.361C203.829 142.412 204.095 142.386 204.336 142.286C204.578 142.186 204.784 142.017 204.929 141.799C205.074 141.582 205.152 141.327 205.152 141.065C205.152 140.715 205.013 140.379 204.765 140.131C204.517 139.883 204.181 139.744 203.831 139.744Z" fill="white"/>
</g>
<defs>
<linearGradient id="paint0_linear_3162_29990" x1="199.667" y1="69.2487" x2="200.146" y2="165.925" gradientUnits="userSpaceOnUse">
<stop stop-color="white"/>
<stop offset="1" stop-color="white" stop-opacity="0"/>
</linearGradient>
</defs>
</svg>
