<svg width="480" height="218" viewBox="0 0 480 218" fill="none" xmlns="http://www.w3.org/2000/svg">
<path d="M161.5 113L393.5 113" stroke="#A9D2FF" stroke-linecap="round"/>
<path d="M332.414 144.57L325.316 167.34L204.816 125.84L328.577 122" fill="url(#paint0_linear_2838_26040)"/>
<path d="M312.56 115.294L199.316 194L195.816 192L309.224 114.526L312.56 115.294Z" fill="#A9D2FF"/>
<path d="M0.816406 109L199.316 194L311.856 115.294L122.316 113" fill="url(#paint1_linear_2838_26040)"/>
<path d="M301.306 25.0419L298.744 24L185.922 90.3583L191.16 93.3503" fill="#D5F0FF"/>
<path d="M310.347 116.469L301.308 25.042L188.184 91.7523L199.222 193.726L310.347 116.469Z" fill="url(#paint2_linear_2838_26040)"/>
<path d="M310.347 116.469L301.308 25.042L188.184 91.7523L261.744 150.261L310.347 116.469Z" fill="white"/>
<path d="M199.22 193.726L197.01 192.719L185.922 90.3584L188.182 91.7523L199.22 193.726Z" fill="#A9D2FF"/>
<path d="M302.244 34.3769L301.308 25.042L188.184 91.7523L189.169 100.813L302.244 34.3769Z" fill="#A9D2FF"/>
<path d="M195.884 92.3152C195.772 91.1959 195.025 90.6186 194.195 91.048C193.364 91.4775 192.709 92.8291 192.836 94.0189C192.963 95.2086 193.772 95.7225 194.624 95.2086C195.476 94.6947 195.997 93.4275 195.884 92.3152Z" fill="white"/>
<path d="M201.467 89.429C201.354 88.3096 200.615 87.7324 199.777 88.1618C198.939 88.5912 198.292 89.9499 198.418 91.1397C198.545 92.3224 199.355 92.8504 200.206 92.3294C201.058 91.8085 201.579 90.5413 201.467 89.429Z" fill="white"/>
<path d="M206.795 86.5847C206.682 85.4654 205.943 84.8881 205.105 85.3176C204.267 85.747 203.62 87.1057 203.746 88.2954C203.873 89.4852 204.683 90.0061 205.535 89.4922C206.351 88.9924 206.907 87.7041 206.795 86.5918V86.5847Z" fill="white"/>
<path d="M230.469 85.2261L195.586 105.804L196.022 109.824L230.828 88.6052L230.469 85.2261Z" fill="#A9D2FF"/>
<path d="M250.646 73.5542L236.426 81.7839L236.771 85.0645L250.963 76.6025L250.646 73.5542Z" fill="#A9D2FF"/>
<path d="M203.685 125.473C202.565 126.086 201.368 125.875 200.615 124.783C199.538 123.228 199.749 120.475 201.066 118.602L201.185 118.433C202.495 116.575 204.452 116.23 205.578 117.701C206.733 119.201 206.585 122.024 205.226 123.967L205.107 124.143C204.684 124.748 204.199 125.192 203.692 125.466L203.685 125.473Z" fill="#A9D2FF"/>
<path d="M221.642 114.393C220.579 114.977 219.453 114.773 218.742 113.738C217.721 112.267 217.925 109.662 219.171 107.895L219.284 107.733C220.523 105.973 222.374 105.649 223.437 107.043C224.522 108.465 224.381 111.126 223.092 112.971L222.973 113.14C222.571 113.71 222.114 114.132 221.635 114.393H221.642Z" fill="#585DFF"/>
<path d="M240.572 103.065C239.58 103.615 238.517 103.424 237.848 102.453C236.898 101.073 237.088 98.6303 238.263 96.9689L238.369 96.821C239.537 95.1667 241.269 94.8639 242.269 96.1663C243.29 97.4969 243.149 99.996 241.938 101.728L241.825 101.883C241.452 102.418 241.016 102.812 240.565 103.058L240.572 103.065Z" fill="#A9D2FF"/>
<path d="M259.139 92.0125C258.139 92.5616 257.076 92.3715 256.408 91.4C255.457 90.0202 255.654 87.5703 256.83 85.9089L256.936 85.761C258.104 84.1066 259.85 83.7969 260.843 85.1063C261.864 86.4439 261.723 88.9431 260.505 90.6819L260.392 90.8368C260.012 91.3718 259.583 91.7731 259.132 92.0195L259.139 92.0125Z" fill="#A9D2FF"/>
<path d="M277.606 80.8826C276.606 81.4317 275.543 81.2417 274.867 80.2702C273.91 78.8833 274.114 76.4334 275.296 74.7649L275.402 74.6171C276.578 72.9557 278.324 72.653 279.323 73.9554C280.344 75.2929 280.203 77.8062 278.978 79.545L278.866 79.6999C278.486 80.242 278.049 80.6362 277.599 80.8826H277.606Z" fill="#A9D2FF"/>
<path d="M296.353 69.8579C295.346 70.407 294.283 70.224 293.614 69.2454C292.657 67.8586 292.868 65.3946 294.051 63.7261L294.156 63.5783C295.339 61.9098 297.085 61.6071 298.085 62.9165C299.105 64.2541 298.958 66.7744 297.733 68.5133L297.62 68.6682C297.24 69.2102 296.803 69.6045 296.346 69.8579H296.353Z" fill="#A9D2FF"/>
<path d="M205.599 143.256C204.479 143.869 203.29 143.658 202.529 142.567C201.452 141.018 201.663 138.265 202.98 136.407L203.099 136.238C204.409 134.379 206.366 134.041 207.485 135.513C208.633 137.012 208.492 139.821 207.133 141.764L207.014 141.94C206.591 142.545 206.106 142.982 205.599 143.264V143.256Z" fill="#A9D2FF"/>
<path d="M223.5 131.873C222.444 132.45 221.318 132.253 220.6 131.218C219.586 129.754 219.79 127.156 221.029 125.389L221.142 125.227C222.381 123.474 224.232 123.15 225.295 124.537C226.38 125.952 226.239 128.613 224.951 130.451L224.831 130.62C224.43 131.19 223.972 131.605 223.493 131.873H223.5Z" fill="#A9D2FF"/>
<path d="M242.362 120.074C241.37 120.616 240.314 120.433 239.645 119.462C238.694 118.082 238.884 115.646 240.06 113.992L240.166 113.844C241.334 112.196 243.066 111.894 244.059 113.196C245.08 114.527 244.939 117.019 243.728 118.744L243.615 118.898C243.242 119.434 242.806 119.828 242.362 120.074Z" fill="#A9D2FF"/>
<path d="M260.863 108.697C259.863 109.246 258.807 109.056 258.138 108.085C257.188 106.705 257.385 104.262 258.56 102.601L258.666 102.453C259.835 100.799 261.574 100.496 262.573 101.805C263.594 103.136 263.453 105.635 262.235 107.367L262.123 107.522C261.743 108.057 261.313 108.451 260.863 108.697Z" fill="#A9D2FF"/>
<path d="M279.287 97.2788C278.287 97.8279 277.224 97.6378 276.556 96.6663C275.605 95.2865 275.802 92.8366 276.985 91.1682L277.091 91.0203C278.266 89.3659 280.012 89.0562 281.005 90.3656C282.026 91.7032 281.878 94.2094 280.66 95.9412L280.547 96.0961C280.167 96.6311 279.731 97.0324 279.28 97.2788H279.287Z" fill="#A9D2FF"/>
<path d="M297.963 85.8036C296.956 86.3527 295.893 86.1627 295.225 85.1911C294.274 83.8043 294.478 81.3473 295.661 79.6859L295.767 79.5381C296.949 77.8767 298.695 77.574 299.695 78.8834C300.716 80.221 300.568 82.7342 299.343 84.4731L299.23 84.628C298.85 85.17 298.414 85.5643 297.963 85.8107V85.8036Z" fill="#A9D2FF"/>
<path d="M207.471 160.701C206.351 161.314 205.161 161.095 204.408 160.011C203.331 158.462 203.542 155.724 204.859 153.865L204.978 153.696C206.288 151.845 208.238 151.514 209.364 152.978C210.512 154.478 210.364 157.28 209.012 159.216L208.893 159.392C208.47 159.99 207.984 160.434 207.485 160.708L207.471 160.701Z" fill="#A9D2FF"/>
<path d="M225.332 149.106C224.276 149.684 223.149 149.48 222.431 148.452C221.418 146.987 221.622 144.397 222.868 142.637L222.98 142.475C224.219 140.722 226.064 140.405 227.127 141.792C228.211 143.207 228.07 145.861 226.782 147.691L226.662 147.86C226.261 148.431 225.803 148.846 225.325 149.106H225.332Z" fill="#A9D2FF"/>
<path d="M244.204 136.695C243.211 137.237 242.155 137.047 241.486 136.083C240.536 134.71 240.733 132.274 241.902 130.627L242.007 130.479C243.169 128.839 244.908 128.536 245.9 129.838C246.914 131.169 246.78 133.654 245.569 135.372L245.457 135.527C245.084 136.062 244.647 136.449 244.204 136.695Z" fill="#A9D2FF"/>
<path d="M262.585 125.332C261.586 125.875 260.53 125.691 259.861 124.72C258.91 123.34 259.107 120.904 260.283 119.25L260.389 119.102C261.557 117.455 263.296 117.152 264.289 118.454C265.303 119.785 265.169 122.277 263.951 124.002L263.838 124.157C263.465 124.692 263.029 125.086 262.578 125.332H262.585Z" fill="#A9D2FF"/>
<path d="M280.902 113.118C279.902 113.667 278.839 113.477 278.17 112.506C277.22 111.126 277.424 108.683 278.6 107.022L278.706 106.874C279.881 105.219 281.62 104.917 282.62 106.226C283.641 107.557 283.493 110.063 282.275 111.788L282.162 111.943C281.782 112.478 281.345 112.872 280.895 113.118H280.902Z" fill="#A9D2FF"/>
<path d="M299.561 101.587C298.561 102.136 297.498 101.946 296.822 100.974C295.872 99.5946 296.076 97.1377 297.259 95.4763L297.364 95.3284C298.54 93.674 300.293 93.3643 301.286 94.6737C302.306 96.0113 302.159 98.5175 300.934 100.249L300.821 100.404C300.441 100.939 300.004 101.341 299.554 101.587H299.561Z" fill="#A9D2FF"/>
<path d="M209.246 177.217C208.126 177.822 206.937 177.611 206.183 176.52C205.106 174.971 205.324 172.24 206.634 170.388L206.753 170.219C208.063 168.375 210.013 168.044 211.132 169.501C212.28 170.993 212.132 173.795 210.78 175.724L210.661 175.9C210.238 176.499 209.753 176.942 209.253 177.217H209.246Z" fill="#A9D2FF"/>
<path d="M227.043 165.199C225.987 165.777 224.861 165.573 224.15 164.545C223.136 163.08 223.34 160.497 224.587 158.744L224.699 158.589C225.938 156.843 227.783 156.526 228.839 157.913C229.923 159.328 229.782 161.968 228.494 163.798L228.374 163.96C227.973 164.524 227.515 164.946 227.036 165.206L227.043 165.199Z" fill="#A9D2FF"/>
<path d="M245.86 152.485C244.867 153.027 243.811 152.837 243.143 151.873C242.192 150.5 242.389 148.071 243.558 146.431L243.664 146.283C244.825 144.643 246.557 144.347 247.55 145.642C248.563 146.966 248.43 149.451 247.219 151.162L247.106 151.317C246.733 151.852 246.296 152.239 245.853 152.485H245.86Z" fill="#A9D2FF"/>
<path d="M264.171 140.63C263.179 141.172 262.115 140.982 261.447 140.018C260.496 138.645 260.693 136.209 261.869 134.562L261.975 134.414C263.143 132.774 264.882 132.471 265.875 133.773C266.889 135.104 266.748 137.589 265.537 139.307L265.424 139.462C265.051 139.997 264.615 140.391 264.164 140.63H264.171Z" fill="#A9D2FF"/>
<path d="M282.504 128.74C281.505 129.282 280.449 129.099 279.78 128.127C278.829 126.747 279.034 124.312 280.209 122.657L280.315 122.509C281.491 120.862 283.229 120.559 284.222 121.862C285.236 123.192 285.095 125.684 283.877 127.409L283.764 127.564C283.384 128.099 282.948 128.493 282.504 128.74Z" fill="#A9D2FF"/>
<path d="M301.003 115.885C300.003 116.434 298.94 116.244 298.272 115.272C297.321 113.893 297.525 111.443 298.708 109.788L298.814 109.64C299.989 107.986 301.735 107.683 302.735 108.993C303.756 110.323 303.608 112.83 302.383 114.554L302.27 114.709C301.89 115.244 301.454 115.638 301.003 115.885Z" fill="#A9D2FF"/>
<path d="M293.301 51.519L295.744 52.2301L294.42 54.518" stroke="#A9D2FF" stroke-miterlimit="10"/>
<path d="M287.436 54.5674L286 56.7357L288.499 57.5664" stroke="#A9D2FF" stroke-miterlimit="10"/>
<path d="M179.5 181.933V179.786L194.805 171.866L197.065 192.747L180.169 183.088C179.753 182.848 179.5 182.412 179.5 181.933Z" fill="#A9D2FF"/>
<path d="M179.835 179.132L194.605 170.142L196.865 191.022L179.821 180.328C179.378 180.054 179.385 179.406 179.828 179.132H179.835Z" fill="#A9D2FF"/>
<path d="M341.964 123.092C342.497 123.092 342.929 122.902 342.929 122.667C342.929 122.432 342.497 122.242 341.964 122.242C341.432 122.242 341 122.432 341 122.667C341 122.902 341.432 123.092 341.964 123.092Z" fill="white"/>
<path d="M341.964 123.092C342.497 123.092 342.929 122.902 342.929 122.667C342.929 122.432 342.497 122.242 341.964 122.242C341.432 122.242 341 122.432 341 122.667C341 122.902 341.432 123.092 341.964 123.092Z" fill="white"/>
<path d="M334.769 124.939L293.059 153L325.456 166.987L365.871 135.918L334.769 124.939Z" fill="#50DDB6"/>
<path d="M334.77 124.939L293.066 153L325.457 166.98L365.872 135.912L334.77 124.939ZM335.329 126.362C335.903 126.369 336.368 126.578 336.361 126.821C336.354 127.064 335.889 127.259 335.316 127.246C334.743 127.232 334.277 127.03 334.284 126.787C334.291 126.544 334.756 126.349 335.329 126.362ZM298.232 153.088C297.639 153.088 297.153 152.825 297.153 152.501C297.153 152.177 297.639 151.914 298.232 151.914C298.826 151.914 299.311 152.177 299.311 152.501C299.311 152.825 298.826 153.088 298.232 153.088ZM324.236 164.411C323.487 164.411 322.88 164.127 322.88 163.77C322.88 163.412 323.487 163.129 324.236 163.129C324.985 163.129 325.591 163.412 325.591 163.77C325.591 164.127 324.985 164.411 324.236 164.411ZM328.107 162.448C327.048 162.084 325.693 161.814 324.701 161.787C322.928 161.733 322.058 162.03 320.803 162.441L300.984 154.254C301.247 153.877 301.388 153.465 301.388 153.047C301.388 152.177 302.123 150.525 301.105 149.878L333.07 127.907C333.569 128.129 334.271 128.291 335.039 128.305C336.091 128.325 336.907 128.122 337.852 127.698L358.326 134.988C358.076 135.291 357.941 135.608 357.941 135.945C357.941 136.741 358.535 137.469 360.079 137.813L328.1 162.455L328.107 162.448ZM362.244 136.586C361.92 136.829 361.205 136.856 360.652 136.613C360.113 136.357 359.931 135.952 360.241 135.736C360.537 135.534 361.225 135.568 361.778 135.797C362.345 136.013 362.554 136.357 362.237 136.586H362.244Z" fill="white"/>
<path d="M332.141 147.632C337.94 147.632 342.641 145.066 342.641 141.9C342.641 138.734 337.94 136.168 332.141 136.168C326.342 136.168 321.641 138.734 321.641 141.9C321.641 145.066 326.342 147.632 332.141 147.632Z" fill="white"/>
<path d="M331.149 97.189L292.824 121.237V121.419L325.579 133.207" fill="#8DD0FF"/>
<path d="M331.149 97L292.824 121.237L325.579 133.018L365.218 106.057L331.149 97Z" fill="#50DDB6"/>
<path d="M331.148 97L292.816 121.237L325.577 133.018L365.217 106.057L331.148 97ZM331.485 98.2611C332.045 98.2611 332.503 98.4162 332.503 98.6118C332.503 98.8073 332.045 98.9624 331.485 98.9624C330.925 98.9624 330.467 98.8073 330.467 98.6118C330.467 98.4162 330.925 98.2611 331.485 98.2611ZM297.982 121.331C297.389 121.331 296.903 121.068 296.903 120.745C296.903 120.421 297.389 120.158 297.982 120.158C298.576 120.158 299.061 120.421 299.061 120.745C299.061 121.068 298.576 121.331 297.982 121.331ZM325.517 131.049C324.768 131.049 324.161 130.766 324.161 130.408C324.161 130.051 324.768 129.768 325.517 129.768C326.265 129.768 326.872 130.051 326.872 130.408C326.872 130.766 326.265 131.049 325.517 131.049ZM328.889 128.83C327.843 128.642 326.71 128.534 325.524 128.534C323.757 128.534 322.104 128.763 320.688 129.168L300.734 122.498C300.997 122.12 301.138 121.709 301.138 121.291C301.138 120.421 300.538 119.618 299.52 118.971L328.922 99.7649C329.61 99.8593 330.352 99.9066 331.114 99.9066C332.625 99.9066 334.021 99.711 335.154 99.3805L358.069 105.241C357.819 105.544 357.684 105.861 357.684 106.198C357.684 106.994 358.393 107.743 359.937 108.087L328.882 128.83H328.889ZM360.915 106.92C360.213 106.92 359.647 106.65 359.647 106.327C359.647 106.003 360.213 105.733 360.915 105.733C361.616 105.733 362.182 106.003 362.182 106.327C362.182 106.65 361.616 106.92 360.915 106.92Z" fill="white"/>
<path d="M332.058 118.027C338.159 118.027 343.104 115.328 343.104 111.998C343.104 108.668 338.159 105.969 332.058 105.969C325.957 105.969 321.012 108.668 321.012 111.998C321.012 115.328 325.957 118.027 332.058 118.027Z" fill="white"/>
<path d="M292.824 121.237L325.579 133.019V167L293.006 152.919L292.824 121.237Z" fill="#E2F3FF"/>
<path d="M292.824 121.237L325.579 133.019V167L293.006 153.877L292.824 121.237Z" fill="#A9D2FF"/>
<path d="M325.578 166.946V133.019L365.218 106.064V134.988L325.578 166.946Z" fill="#D5F0FF"/>
<path d="M365.629 109.111L365.696 109.124L365.629 109.172V109.111Z" fill="white"/>
<path d="M325.686 136.572L325.652 136.525L365.683 109.104L365.724 109.158L325.686 136.572Z" fill="white"/>
<path d="M365.633 127.063L365.7 127.077L365.633 127.124V127.063Z" fill="white"/>
<path d="M337.982 147.43L337.941 147.383L365.685 127.057L365.726 127.111L337.982 147.43Z" fill="white"/>
<path d="M365.633 134.272L365.7 134.285L365.633 134.333V134.272Z" fill="white"/>
<path d="M328.42 162.131L328.387 162.084L365.686 134.266L365.727 134.32L328.42 162.131Z" fill="white"/>
<path d="M334.264 138.838L334.23 138.784L364.159 117.575L364.193 117.629L334.264 138.838Z" fill="white"/>
<path d="M363.694 114.365L363.66 114.318L365.548 112.982L365.589 113.036L363.694 114.365Z" fill="white"/>
<path d="M348.137 142.206L325.727 159.149L325.763 159.197L348.174 142.254L348.137 142.206Z" fill="white"/>
<path d="M338.366 144.753L338.332 144.705L362.913 126.625L362.947 126.673L338.366 144.753Z" fill="white"/>
<path d="M325.654 149.864L325.613 149.816L365.55 121.25L365.59 121.304L325.654 149.864Z" fill="white"/>
<path d="M325.647 141.198L325.613 141.144L333.031 135.911L333.065 135.965L325.647 141.198Z" fill="white"/>
<path d="M325.58 141.212L292.906 128.925L292.926 128.871L325.607 141.151L325.58 141.212Z" fill="white"/>
<path d="M318.323 151.523L292.906 141.347L292.926 141.286L318.35 151.462L318.323 151.523Z" fill="white"/>
<path d="M325.58 149.884L292.906 137.064L292.926 137.003L325.607 149.83L325.58 149.884Z" fill="white"/>
<path d="M305.138 150.147L305.113 150.202L325.594 159.231L325.618 159.175L305.138 150.147Z" fill="white"/>
<path d="M319.496 160.884L298.766 152.353L298.786 152.292L319.523 160.823L319.496 160.884Z" fill="white"/>
<defs>
<linearGradient id="paint0_linear_2838_26040" x1="357.426" y1="161.874" x2="222.308" y2="124.302" gradientUnits="userSpaceOnUse">
<stop offset="0.44" stop-color="#E2F3FF"/>
<stop offset="0.49" stop-color="#E2F3FF" stop-opacity="0.97"/>
<stop offset="0.55" stop-color="#E5F4FF" stop-opacity="0.89"/>
<stop offset="0.63" stop-color="#E8F5FF" stop-opacity="0.77"/>
<stop offset="0.71" stop-color="#EDF7FF" stop-opacity="0.59"/>
<stop offset="0.81" stop-color="#F4FAFF" stop-opacity="0.36"/>
<stop offset="0.91" stop-color="#FCFDFF" stop-opacity="0.09"/>
<stop offset="0.94" stop-color="white" stop-opacity="0"/>
</linearGradient>
<linearGradient id="paint1_linear_2838_26040" x1="234.122" y1="145.418" x2="177.091" y2="111.211" gradientUnits="userSpaceOnUse">
<stop offset="0.08" stop-color="#E2F3FF"/>
<stop offset="0.18" stop-color="#E2F3FF" stop-opacity="0.98"/>
<stop offset="0.29" stop-color="#E4F3FF" stop-opacity="0.93"/>
<stop offset="0.4" stop-color="#E6F4FF" stop-opacity="0.85"/>
<stop offset="0.51" stop-color="#E9F6FF" stop-opacity="0.73"/>
<stop offset="0.63" stop-color="#EEF8FF" stop-opacity="0.57"/>
<stop offset="0.75" stop-color="#F3FAFF" stop-opacity="0.38"/>
<stop offset="0.87" stop-color="#FAFDFF" stop-opacity="0.16"/>
<stop offset="0.94" stop-color="white" stop-opacity="0"/>
</linearGradient>
<linearGradient id="paint2_linear_2838_26040" x1="249.265" y1="25.042" x2="249.265" y2="193.726" gradientUnits="userSpaceOnUse">
<stop stop-color="#E2F3FF"/>
<stop offset="1" stop-color="white"/>
</linearGradient>
</defs>
</svg>

